<svg xmlns="http://www.w3.org/2000/svg" xmlns:xlink="http://www.w3.org/1999/xlink" width="2000" zoomAndPan="magnify" viewBox="0 0 1500 1499.999933" height="2000" preserveAspectRatio="xMidYMid meet" version="1.0"><defs><g/><clipPath id="f62decd0fa"><rect x="0" width="618" y="0" height="210"/></clipPath></defs><rect x="-150" width="1800" fill="#ffffff" y="-149.999993" height="1799.99992" fill-opacity="1"/><rect x="-150" width="1800" fill="#ffffff" y="-149.999993" height="1799.99992" fill-opacity="1"/><g fill="#7c4dff" fill-opacity="1"><g transform="translate(105.984911, 883.874904)"><g><path d="M 123.015625 3.984375 C 101.066406 3.984375 82.070312 0.609375 66.03125 -6.140625 C 49.988281 -12.898438 37.535156 -22.882812 28.671875 -36.09375 C 19.804688 -49.300781 15.191406 -65.492188 14.828125 -84.671875 L 68.5625 -84.671875 C 69.050781 -75.503906 71.644531 -67.753906 76.34375 -61.421875 C 81.050781 -55.085938 87.382812 -50.320312 95.34375 -47.125 C 103.300781 -43.925781 112.40625 -42.328125 122.65625 -42.328125 C 132.550781 -42.328125 141.207031 -43.773438 148.625 -46.671875 C 156.039062 -49.566406 161.796875 -53.609375 165.890625 -58.796875 C 169.992188 -63.984375 172.046875 -69.953125 172.046875 -76.703125 C 172.046875 -82.859375 170.265625 -88.046875 166.703125 -92.265625 C 163.148438 -96.484375 157.90625 -100.097656 150.96875 -103.109375 C 144.039062 -106.128906 135.445312 -108.785156 125.1875 -111.078125 L 95.890625 -118.3125 C 72.242188 -123.863281 53.9375 -132.640625 40.96875 -144.640625 C 28.007812 -156.640625 21.53125 -172.410156 21.53125 -191.953125 C 21.53125 -208.234375 25.898438 -222.460938 34.640625 -234.640625 C 43.390625 -246.828125 55.390625 -256.328125 70.640625 -263.140625 C 85.898438 -269.953125 103.421875 -273.359375 123.203125 -273.359375 C 143.222656 -273.359375 160.679688 -269.921875 175.578125 -263.046875 C 190.472656 -256.171875 202.082031 -246.582031 210.40625 -234.28125 C 218.726562 -221.976562 223.070312 -207.6875 223.4375 -191.40625 L 170.234375 -191.40625 C 169.273438 -202.625 164.601562 -211.367188 156.21875 -217.640625 C 147.832031 -223.910156 136.707031 -227.046875 122.84375 -227.046875 C 113.550781 -227.046875 105.53125 -225.6875 98.78125 -222.96875 C 92.03125 -220.257812 86.875 -216.519531 83.3125 -211.75 C 79.75 -206.988281 77.96875 -201.535156 77.96875 -195.390625 C 77.96875 -188.992188 79.867188 -183.65625 83.671875 -179.375 C 87.472656 -175.09375 92.71875 -171.535156 99.40625 -168.703125 C 106.101562 -165.867188 113.613281 -163.488281 121.9375 -161.5625 L 146.546875 -155.59375 C 158.484375 -152.9375 169.425781 -149.40625 179.375 -145 C 189.320312 -140.601562 197.914062 -135.265625 205.15625 -128.984375 C 212.394531 -122.710938 217.941406 -115.296875 221.796875 -106.734375 C 225.660156 -98.171875 227.59375 -88.40625 227.59375 -77.4375 C 227.59375 -60.90625 223.429688 -46.519531 215.109375 -34.28125 C 206.785156 -22.039062 194.84375 -12.601562 179.28125 -5.96875 C 163.726562 0.664062 144.972656 3.984375 123.015625 3.984375 Z M 123.015625 3.984375 "/></g></g></g><g fill="#7c4dff" fill-opacity="1"><g transform="translate(346.929643, 883.874904)"><g><path d="M 79.0625 3.796875 C 66.28125 3.796875 54.820312 1.566406 44.6875 -2.890625 C 34.550781 -7.359375 26.585938 -14.023438 20.796875 -22.890625 C 15.015625 -31.753906 12.125 -42.757812 12.125 -55.90625 C 12.125 -67.125 14.171875 -76.46875 18.265625 -83.9375 C 22.367188 -91.414062 27.976562 -97.445312 35.09375 -102.03125 C 42.207031 -106.613281 50.316406 -110.082031 59.421875 -112.4375 C 68.535156 -114.789062 78.097656 -116.453125 88.109375 -117.421875 C 99.804688 -118.617188 109.210938 -119.726562 116.328125 -120.75 C 123.441406 -121.78125 128.625 -123.378906 131.875 -125.546875 C 135.132812 -127.722656 136.765625 -130.984375 136.765625 -135.328125 L 136.765625 -136.234375 C 136.765625 -141.773438 135.53125 -146.503906 133.0625 -150.421875 C 130.59375 -154.347656 127.003906 -157.363281 122.296875 -159.46875 C 117.597656 -161.582031 111.867188 -162.640625 105.109375 -162.640625 C 98.234375 -162.640625 92.234375 -161.582031 87.109375 -159.46875 C 81.984375 -157.363281 77.820312 -154.53125 74.625 -150.96875 C 71.425781 -147.414062 69.164062 -143.40625 67.84375 -138.9375 L 18.09375 -145.28125 C 20.863281 -157.332031 26.164062 -167.640625 34 -176.203125 C 41.84375 -184.773438 51.851562 -191.320312 64.03125 -195.84375 C 76.21875 -200.363281 90.09375 -202.625 105.65625 -202.625 C 116.988281 -202.625 127.75 -201.296875 137.9375 -198.640625 C 148.132812 -195.992188 157.210938 -191.894531 165.171875 -186.34375 C 173.128906 -180.789062 179.367188 -173.765625 183.890625 -165.265625 C 188.421875 -156.765625 190.6875 -146.601562 190.6875 -134.78125 L 190.6875 0 L 139.125 0 L 139.125 -27.859375 L 137.5 -27.859375 C 134.238281 -21.585938 129.925781 -16.066406 124.5625 -11.296875 C 119.195312 -6.535156 112.773438 -2.828125 105.296875 -0.171875 C 97.816406 2.472656 89.070312 3.796875 79.0625 3.796875 Z M 94.25 -34.015625 C 102.820312 -34.015625 110.300781 -35.703125 116.6875 -39.078125 C 123.082031 -42.453125 128.085938 -46.972656 131.703125 -52.640625 C 135.328125 -58.316406 137.140625 -64.710938 137.140625 -71.828125 L 137.140625 -92.984375 C 135.441406 -92.023438 133.085938 -91.0625 130.078125 -90.09375 C 127.066406 -89.132812 123.628906 -88.289062 119.765625 -87.5625 C 115.910156 -86.84375 112.019531 -86.179688 108.09375 -85.578125 C 104.175781 -84.972656 100.585938 -84.425781 97.328125 -83.9375 C 90.816406 -82.976562 85.023438 -81.441406 79.953125 -79.328125 C 74.890625 -77.222656 70.972656 -74.390625 68.203125 -70.828125 C 65.429688 -67.265625 64.046875 -62.832031 64.046875 -57.53125 C 64.046875 -52.46875 65.34375 -48.1875 67.9375 -44.6875 C 70.53125 -41.1875 74.085938 -38.53125 78.609375 -36.71875 C 83.128906 -34.914062 88.34375 -34.015625 94.25 -34.015625 Z M 94.25 -34.015625 "/></g></g></g><g fill="#7c4dff" fill-opacity="1"><g transform="translate(558.204198, 883.874904)"><g><path d="M 79.0625 3.796875 C 66.28125 3.796875 54.820312 1.566406 44.6875 -2.890625 C 34.550781 -7.359375 26.585938 -14.023438 20.796875 -22.890625 C 15.015625 -31.753906 12.125 -42.757812 12.125 -55.90625 C 12.125 -67.125 14.171875 -76.46875 18.265625 -83.9375 C 22.367188 -91.414062 27.976562 -97.445312 35.09375 -102.03125 C 42.207031 -106.613281 50.316406 -110.082031 59.421875 -112.4375 C 68.535156 -114.789062 78.097656 -116.453125 88.109375 -117.421875 C 99.804688 -118.617188 109.210938 -119.726562 116.328125 -120.75 C 123.441406 -121.78125 128.625 -123.378906 131.875 -125.546875 C 135.132812 -127.722656 136.765625 -130.984375 136.765625 -135.328125 L 136.765625 -136.234375 C 136.765625 -141.773438 135.53125 -146.503906 133.0625 -150.421875 C 130.59375 -154.347656 127.003906 -157.363281 122.296875 -159.46875 C 117.597656 -161.582031 111.867188 -162.640625 105.109375 -162.640625 C 98.234375 -162.640625 92.234375 -161.582031 87.109375 -159.46875 C 81.984375 -157.363281 77.820312 -154.53125 74.625 -150.96875 C 71.425781 -147.414062 69.164062 -143.40625 67.84375 -138.9375 L 18.09375 -145.28125 C 20.863281 -157.332031 26.164062 -167.640625 34 -176.203125 C 41.84375 -184.773438 51.851562 -191.320312 64.03125 -195.84375 C 76.21875 -200.363281 90.09375 -202.625 105.65625 -202.625 C 116.988281 -202.625 127.75 -201.296875 137.9375 -198.640625 C 148.132812 -195.992188 157.210938 -191.894531 165.171875 -186.34375 C 173.128906 -180.789062 179.367188 -173.765625 183.890625 -165.265625 C 188.421875 -156.765625 190.6875 -146.601562 190.6875 -134.78125 L 190.6875 0 L 139.125 0 L 139.125 -27.859375 L 137.5 -27.859375 C 134.238281 -21.585938 129.925781 -16.066406 124.5625 -11.296875 C 119.195312 -6.535156 112.773438 -2.828125 105.296875 -0.171875 C 97.816406 2.472656 89.070312 3.796875 79.0625 3.796875 Z M 94.25 -34.015625 C 102.820312 -34.015625 110.300781 -35.703125 116.6875 -39.078125 C 123.082031 -42.453125 128.085938 -46.972656 131.703125 -52.640625 C 135.328125 -58.316406 137.140625 -64.710938 137.140625 -71.828125 L 137.140625 -92.984375 C 135.441406 -92.023438 133.085938 -91.0625 130.078125 -90.09375 C 127.066406 -89.132812 123.628906 -88.289062 119.765625 -87.5625 C 115.910156 -86.84375 112.019531 -86.179688 108.09375 -85.578125 C 104.175781 -84.972656 100.585938 -84.425781 97.328125 -83.9375 C 90.816406 -82.976562 85.023438 -81.441406 79.953125 -79.328125 C 74.890625 -77.222656 70.972656 -74.390625 68.203125 -70.828125 C 65.429688 -67.265625 64.046875 -62.832031 64.046875 -57.53125 C 64.046875 -52.46875 65.34375 -48.1875 67.9375 -44.6875 C 70.53125 -41.1875 74.085938 -38.53125 78.609375 -36.71875 C 83.128906 -34.914062 88.34375 -34.015625 94.25 -34.015625 Z M 94.25 -34.015625 "/></g></g></g><g fill="#7c4dff" fill-opacity="1"><g transform="translate(769.478774, 883.874904)"><g><path d="M 22.25 0 L 22.25 -199.734375 L 74.53125 -199.734375 L 74.53125 -165.171875 L 76.34375 -165.171875 C 79.96875 -177.359375 86 -186.554688 94.4375 -192.765625 C 102.882812 -198.972656 112.894531 -202.078125 124.46875 -202.078125 C 127.363281 -202.078125 130.378906 -201.957031 133.515625 -201.71875 C 136.648438 -201.476562 139.363281 -201.117188 141.65625 -200.640625 L 141.65625 -152.875 C 139.363281 -153.59375 135.957031 -154.160156 131.4375 -154.578125 C 126.914062 -155.003906 122.539062 -155.21875 118.3125 -155.21875 C 110.351562 -155.21875 103.144531 -153.46875 96.6875 -149.96875 C 90.238281 -146.476562 85.207031 -141.535156 81.59375 -135.140625 C 77.976562 -128.753906 76.171875 -121.21875 76.171875 -112.53125 L 76.171875 0 Z M 22.25 0 "/></g></g></g><g fill="#7c4dff" fill-opacity="1"><g transform="translate(923.403166, 883.874904)"><g><path d="M 124.65625 -199.734375 L 124.65625 -158.296875 L 3.4375 -158.296875 L 3.4375 -199.734375 Z M 32.5625 -248.765625 L 86.484375 -248.765625 L 86.484375 -59.15625 C 86.484375 -52.769531 87.898438 -48.097656 90.734375 -45.140625 C 93.566406 -42.179688 98.300781 -40.703125 104.9375 -40.703125 C 107.34375 -40.703125 110.445312 -40.910156 114.25 -41.328125 C 118.050781 -41.753906 120.972656 -42.148438 123.015625 -42.515625 L 129 -1.453125 C 123.570312 -0.117188 117.898438 0.816406 111.984375 1.359375 C 106.078125 1.898438 100.347656 2.171875 94.796875 2.171875 C 74.296875 2.171875 58.796875 -2.5625 48.296875 -12.03125 C 37.804688 -21.5 32.5625 -35.335938 32.5625 -53.546875 Z M 32.5625 -248.765625 "/></g></g></g><g fill="#7c4dff" fill-opacity="1"><g transform="translate(1058.512287, 883.874904)"><g><path d="M 76.171875 -114.703125 L 76.171875 0 L 22.25 0 L 22.25 -269.5625 L 75.4375 -269.5625 L 75.4375 -149.4375 L 69.828125 -149.4375 C 75.253906 -166.320312 83.425781 -179.40625 94.34375 -188.6875 C 105.257812 -197.976562 119.28125 -202.625 136.40625 -202.625 C 150.28125 -202.625 162.398438 -199.609375 172.765625 -193.578125 C 183.140625 -187.546875 191.191406 -178.859375 196.921875 -167.515625 C 202.648438 -156.179688 205.515625 -142.554688 205.515625 -126.640625 L 205.515625 0 L 151.421875 0 L 151.421875 -117.046875 C 151.421875 -129.710938 148.222656 -139.570312 141.828125 -146.625 C 135.441406 -153.6875 126.519531 -157.21875 115.0625 -157.21875 C 107.46875 -157.21875 100.742188 -155.554688 94.890625 -152.234375 C 89.035156 -148.921875 84.453125 -144.128906 81.140625 -137.859375 C 77.828125 -131.585938 76.171875 -123.867188 76.171875 -114.703125 Z M 76.171875 -114.703125 "/></g></g></g><g fill="#7c4dff" fill-opacity="1"><g transform="translate(1284.621975, 883.874904)"><g><path d="M 22.25 0 L 22.25 -199.734375 L 76.171875 -199.734375 L 76.171875 0 Z M 49.203125 -225.609375 C 40.878906 -225.609375 33.789062 -228.320312 27.9375 -233.75 C 22.09375 -239.175781 19.171875 -245.804688 19.171875 -253.640625 C 19.171875 -261.484375 22.09375 -268.117188 27.9375 -273.546875 C 33.789062 -278.972656 40.878906 -281.6875 49.203125 -281.6875 C 57.523438 -281.6875 64.582031 -278.972656 70.375 -273.546875 C 76.164062 -268.117188 79.0625 -261.484375 79.0625 -253.640625 C 79.0625 -245.804688 76.164062 -239.175781 70.375 -233.75 C 64.582031 -228.320312 57.523438 -225.609375 49.203125 -225.609375 Z M 49.203125 -225.609375 "/></g></g></g><g transform="matrix(1, 0, 0, 1, 321, 503)"><g clip-path="url(#f62decd0fa)"><g fill="#1f1746" fill-opacity="1"><g transform="translate(10.251755, 162.98545)"><g><path d="M 14.15625 -119.421875 L 41.796875 -119.421875 L 41.796875 -22.515625 L 101.671875 -22.515625 L 101.671875 0 L 14.15625 0 Z M 14.15625 -119.421875 "/></g></g></g><g fill="#1f1746" fill-opacity="1"><g transform="translate(111.213592, 162.98545)"><g><path d="M 71.984375 2.046875 C 59.585938 2.046875 48.414062 -0.625 38.46875 -5.96875 C 28.519531 -11.3125 20.726562 -18.675781 15.09375 -28.0625 C 9.46875 -37.445312 6.65625 -47.992188 6.65625 -59.703125 C 6.65625 -71.421875 9.46875 -81.96875 15.09375 -91.34375 C 20.726562 -100.726562 28.519531 -108.09375 38.46875 -113.4375 C 48.414062 -118.789062 59.585938 -121.46875 71.984375 -121.46875 C 84.378906 -121.46875 95.523438 -118.789062 105.421875 -113.4375 C 115.316406 -108.09375 123.109375 -100.726562 128.796875 -91.34375 C 134.484375 -81.96875 137.328125 -71.421875 137.328125 -59.703125 C 137.328125 -47.992188 134.484375 -37.445312 128.796875 -28.0625 C 123.109375 -18.675781 115.316406 -11.3125 105.421875 -5.96875 C 95.523438 -0.625 84.378906 2.046875 71.984375 2.046875 Z M 71.984375 -21.5 C 79.035156 -21.5 85.40625 -23.117188 91.09375 -26.359375 C 96.78125 -29.597656 101.242188 -34.117188 104.484375 -39.921875 C 107.722656 -45.722656 109.34375 -52.316406 109.34375 -59.703125 C 109.34375 -67.097656 107.722656 -73.695312 104.484375 -79.5 C 101.242188 -85.300781 96.78125 -89.820312 91.09375 -93.0625 C 85.40625 -96.300781 79.035156 -97.921875 71.984375 -97.921875 C 64.929688 -97.921875 58.5625 -96.300781 52.875 -93.0625 C 47.195312 -89.820312 42.734375 -85.300781 39.484375 -79.5 C 36.242188 -73.695312 34.625 -67.097656 34.625 -59.703125 C 34.625 -52.316406 36.242188 -45.722656 39.484375 -39.921875 C 42.734375 -34.117188 47.195312 -29.597656 52.875 -26.359375 C 58.5625 -23.117188 64.929688 -21.5 71.984375 -21.5 Z M 71.984375 -21.5 "/></g></g></g><g fill="#1f1746" fill-opacity="1"><g transform="translate(255.153217, 162.98545)"><g><path d="M 71.3125 2.046875 C 59.132812 2.046875 48.128906 -0.59375 38.296875 -5.875 C 28.460938 -11.164062 20.726562 -18.503906 15.09375 -27.890625 C 9.46875 -37.273438 6.65625 -47.878906 6.65625 -59.703125 C 6.65625 -71.535156 9.46875 -82.140625 15.09375 -91.515625 C 20.726562 -100.898438 28.460938 -108.238281 38.296875 -113.53125 C 48.128906 -118.820312 59.191406 -121.46875 71.484375 -121.46875 C 81.828125 -121.46875 91.175781 -119.644531 99.53125 -116 C 107.894531 -112.363281 114.921875 -107.132812 120.609375 -100.3125 L 102.875 -83.9375 C 94.789062 -93.257812 84.78125 -97.921875 72.84375 -97.921875 C 65.445312 -97.921875 58.847656 -96.300781 53.046875 -93.0625 C 47.253906 -89.820312 42.734375 -85.300781 39.484375 -79.5 C 36.242188 -73.695312 34.625 -67.097656 34.625 -59.703125 C 34.625 -52.316406 36.242188 -45.722656 39.484375 -39.921875 C 42.734375 -34.117188 47.253906 -29.597656 53.046875 -26.359375 C 58.847656 -23.117188 65.445312 -21.5 72.84375 -21.5 C 84.78125 -21.5 94.789062 -26.21875 102.875 -35.65625 L 120.609375 -19.28125 C 114.921875 -12.34375 107.867188 -7.050781 99.453125 -3.40625 C 91.035156 0.226562 81.65625 2.046875 71.3125 2.046875 Z M 71.3125 2.046875 "/></g></g></g><g fill="#1f1746" fill-opacity="1"><g transform="translate(377.774134, 162.98545)"><g><path d="M 92.796875 -25.59375 L 37.359375 -25.59375 L 26.78125 0 L -1.53125 0 L 51.6875 -119.421875 L 78.984375 -119.421875 L 132.375 0 L 103.375 0 Z M 84.109375 -46.578125 L 65.171875 -92.296875 L 46.234375 -46.578125 Z M 84.109375 -46.578125 "/></g></g></g><g fill="#1f1746" fill-opacity="1"><g transform="translate(508.411317, 162.98545)"><g><path d="M 14.15625 -119.421875 L 41.796875 -119.421875 L 41.796875 -22.515625 L 101.671875 -22.515625 L 101.671875 0 L 14.15625 0 Z M 14.15625 -119.421875 "/></g></g></g></g></g></svg>